<?xml version="1.0" standalone="no"?>
<!DOCTYPE svg PUBLIC "-//W3C//DTD SVG 20010904//EN"
 "http://www.w3.org/TR/2001/REC-SVG-20010904/DTD/svg10.dtd">
<svg version="1.0" xmlns="http://www.w3.org/2000/svg"
 width="100.000000pt" height="100.000000pt" viewBox="0 0 100.000000 100.000000"
 preserveAspectRatio="xMidYMid meet">
<metadata>
Created by potrace 1.14, written by Peter Selinger 2001-2017
</metadata>
<g transform="translate(0.000000,100.000000) scale(0.100000,-0.100000)"
fill="#000000" stroke="none">
<path d="M0 500 l0 -500 500 0 500 0 0 500 0 500 -500 0 -500 0 0 -500z m818
411 c28 -25 52 -49 52 -53 0 -5 -42 -61 -94 -126 -108 -135 -198 -267 -257
-376 -35 -65 -38 -77 -24 -82 9 -4 17 -5 19 -3 1 2 24 42 51 89 26 47 67 114
91 149 41 61 43 62 54 41 17 -32 16 -128 -2 -170 -70 -164 -274 -196 -390 -60
-59 68 -74 159 -38 238 10 23 17 42 14 42 -21 0 -184 -137 -184 -154 0 -21
209 -216 298 -280 l82 -58 43 27 c118 78 347 282 347 310 0 12 -129 126 -150
133 -15 6 -11 25 10 51 19 23 21 23 46 6 58 -38 184 -168 184 -190 0 -53 -415
-414 -476 -415 -58 0 -398 285 -469 394 -22 33 -12 49 72 123 107 93 146 121
217 154 65 30 199 59 213 46 3 -4 -1 -22 -9 -41 -14 -29 -22 -34 -65 -40 -79
-10 -81 -16 -37 -80 27 -38 41 -52 47 -44 4 7 25 42 45 78 112 192 177 298
199 328 28 37 19 40 111 -37z"/>
<path d="M332 558 c2 -15 10 -23 23 -23 13 0 21 8 23 23 3 18 -1 22 -23 22
-22 0 -26 -4 -23 -22z"/>
</g>
</svg>
