<?xml version="1.0" standalone="no"?>
<!DOCTYPE svg PUBLIC "-//W3C//DTD SVG 20010904//EN"
 "http://www.w3.org/TR/2001/REC-SVG-20010904/DTD/svg10.dtd">
<svg version="1.0" xmlns="http://www.w3.org/2000/svg"
 width="700.000000pt" height="700.000000pt" viewBox="0 0 700.000000 700.000000"
 preserveAspectRatio="xMidYMid meet">
<metadata>
Created by potrace 1.14, written by Peter Selinger 2001-2017
</metadata>
<g transform="translate(0.000000,700.000000) scale(0.100000,-0.100000)"
fill="#000000" stroke="none">
<path d="M3299 6916 c-2 -2 -51 -7 -108 -10 -57 -4 -107 -8 -110 -10 -3 -2
-33 -6 -66 -10 -33 -3 -85 -10 -115 -16 -30 -6 -66 -13 -80 -16 -14 -2 -38 -7
-55 -11 -16 -4 -34 -8 -40 -9 -52 -10 -263 -71 -356 -103 -684 -236 -1286
-698 -1701 -1306 -42 -60 -83 -123 -92 -140 -9 -16 -26 -46 -38 -65 -178 -298
-340 -738 -403 -1095 -41 -235 -50 -347 -50 -620 1 -241 10 -373 40 -547 3
-16 7 -43 10 -60 10 -59 56 -260 72 -312 73 -242 126 -379 229 -586 207 -417
472 -758 840 -1080 102 -89 438 -330 460 -330 3 0 18 -8 32 -19 103 -72 452
-229 662 -298 100 -33 339 -95 411 -107 19 -3 48 -8 64 -11 60 -10 91 -15 140
-21 28 -3 64 -8 80 -11 53 -9 638 -12 690 -3 28 4 77 10 110 14 57 6 77 9 143
21 15 3 43 8 62 11 55 8 271 61 318 78 23 8 46 15 50 16 16 1 144 45 252 88
527 208 1022 573 1386 1022 67 82 203 271 228 316 21 38 40 68 46 74 17 17
165 307 214 420 61 141 156 433 185 570 6 30 14 66 17 80 50 238 62 387 59
715 -2 165 -6 320 -9 345 -6 39 -29 188 -43 275 -2 17 -9 48 -15 70 -11 43
-16 66 -24 105 -19 94 -123 403 -174 515 -101 223 -169 349 -277 514 -70 107
-198 281 -239 326 -11 11 -34 38 -53 60 -77 91 -203 216 -342 341 -117 105
-351 271 -526 373 -288 167 -671 313 -987 377 -77 15 -251 44 -301 49 -33 4
-71 9 -85 11 -29 6 -505 15 -511 10z"/>
</g>
</svg>
