<svg xmlns="http://www.w3.org/2000/svg" xmlns:xlink="http://www.w3.org/1999/xlink" width="250" zoomAndPan="magnify" viewBox="0 0 187.5 187.499992" height="250" preserveAspectRatio="xMidYMid meet" version="1.0"><defs><clipPath id="722f9d1da2"><path d="M 2.144531 2.144531 L 184.65625 2.144531 L 184.65625 184.65625 L 2.144531 184.65625 Z M 2.144531 2.144531 " clip-rule="nonzero"/></clipPath></defs><g clip-path="url(#722f9d1da2)"><path stroke-linecap="butt" transform="matrix(0.477284, 0, 0, 0.477284, 2.144736, 2.144732)" fill-opacity="1" fill="#00d300" fill-rule="nonzero" stroke-linejoin="miter" d="M 191.226575 381.946157 C 85.88599 381.946157 0.498816 296.558983 0.498816 191.226583 C 0.498816 85.885999 85.88599 0.498825 191.226575 0.498825 C 296.558975 0.498825 381.946149 85.885999 381.946149 191.226583 C 381.946149 296.558983 296.558975 381.946157 191.226575 381.946157 Z M 191.226575 381.946157 " stroke="#3fb24f" stroke-width="1" stroke-opacity="1" stroke-miterlimit="10"/></g><path fill="#ffffff" d="M 74.785156 150.199219 L 35.546875 99.234375 L 50.671875 87.589844 L 75.324219 119.605469 L 136.359375 45.835938 L 151.070312 58.007812 Z M 74.785156 150.199219 " fill-opacity="1" fill-rule="nonzero"/></svg>